<svg width="32" height="32" viewBox="0 0 32 32" fill="none" xmlns="http://www.w3.org/2000/svg">
  <rect width="32" height="32" fill="#030213"/>
  <rect x="4" y="4" width="4" height="4" fill="#ff6b6b"/>
  <rect x="8" y="4" width="4" height="4" fill="#4ecdc4"/>
  <rect x="12" y="4" width="4" height="4" fill="#45b7d1"/>
  <rect x="16" y="4" width="4" height="4" fill="#96ceb4"/>
  <rect x="20" y="4" width="4" height="4" fill="#ffeaa7"/>
  <rect x="24" y="4" width="4" height="4" fill="#dda0dd"/>
  
  <rect x="4" y="8" width="4" height="4" fill="#74b9ff"/>
  <rect x="8" y="8" width="4" height="4" fill="#fd79a8"/>
  <rect x="12" y="8" width="4" height="4" fill="#fdcb6e"/>
  <rect x="16" y="8" width="4" height="4" fill="#6c5ce7"/>
  <rect x="20" y="8" width="4" height="4" fill="#a29bfe"/>
  <rect x="24" y="8" width="4" height="4" fill="#fd7f6f"/>
  
  <rect x="8" y="16" width="16" height="4" fill="#ffffff"/>
  <rect x="12" y="20" width="8" height="4" fill="#ffffff"/>
  
  <rect x="4" y="24" width="4" height="4" fill="#00b894"/>
  <rect x="8" y="24" width="4" height="4" fill="#00cec9"/>
  <rect x="12" y="24" width="4" height="4" fill="#55a3ff"/>
  <rect x="16" y="24" width="4" height="4" fill="#fd79a8"/>
  <rect x="20" y="24" width="4" height="4" fill="#fdcb6e"/>
  <rect x="24" y="24" width="4" height="4" fill="#e17055"/>
</svg>